<svg width="189" height="166" viewBox="0 0 189 166" fill="none" xmlns="http://www.w3.org/2000/svg">
<path d="M40.2426 68.5876C42.1415 65.1306 47.1085 65.1305 49.0074 68.5876L79.2027 123.559C81.033 126.891 78.6221 130.966 74.8203 130.966H14.4297C10.6279 130.966 8.21697 126.891 10.0473 123.559L40.2426 68.5876Z" fill="#C4C4C4"/>
<path d="M35.3973 147.664C34.0876 152.631 27.0374 152.631 25.7277 147.664L21.9871 133.477C21.151 130.306 23.5425 127.202 26.8218 127.202L34.3032 127.202C37.5825 127.202 39.974 130.306 39.1379 133.477L35.3973 147.664Z" fill="#C4C4C4"/>
<path d="M103.348 89.5352C98.9951 86.4104 101.761 79.5278 106.986 80.4822L125.926 83.9415C129.064 84.5146 130.91 87.8842 129.716 90.8567L126.554 98.7244C125.359 101.697 121.74 102.739 119.126 100.862L103.348 89.5352Z" fill="#C4C4C4"/>
<path d="M78.0492 81.9438C83.2553 80.8909 86.1454 87.724 81.85 90.9301L66.2815 102.55C63.7029 104.475 60.0668 103.501 58.819 100.55L55.5182 92.7464C54.2704 89.7962 56.0545 86.3921 59.1799 85.76L78.0492 81.9438Z" fill="#C4C4C4"/>
<path d="M64.2723 147.664C62.9626 152.631 55.9124 152.631 54.6027 147.664L50.8621 133.477C50.026 130.306 52.4175 127.202 55.6968 127.202L63.1782 127.202C66.4575 127.202 68.849 130.306 68.0129 133.477L64.2723 147.664Z" fill="#C4C4C4"/>
<path d="M134.772 147.664C133.463 152.631 126.412 152.631 125.103 147.664L121.362 133.477C120.526 130.306 122.917 127.202 126.197 127.202L133.678 127.202C136.958 127.202 139.349 130.306 138.513 133.477L134.772 147.664Z" fill="#C4C4C4"/>
<path d="M163.647 147.664C162.338 152.631 155.287 152.631 153.978 147.664L150.237 133.477C149.401 130.306 151.792 127.202 155.072 127.202L162.553 127.202C165.833 127.202 168.224 130.306 167.388 133.477L163.647 147.664Z" fill="#C4C4C4"/>
<rect x="13.125" width="63" height="64.4698" fill="#C4C4C4"/>
<path d="M139.993 68.5876C141.892 65.1306 146.858 65.1305 148.757 68.5876L178.953 123.559C180.783 126.891 178.372 130.966 174.57 130.966H114.18C110.378 130.966 107.967 126.891 109.797 123.559L139.993 68.5876Z" fill="#C4C4C4"/>
<rect x="112.875" width="63" height="64.4698" fill="#C4C4C4"/>
</svg>
